<?xml version="1.0" encoding="UTF-8"?>
<svg id="_레이어_1" data-name=" 레이어 1" xmlns="http://www.w3.org/2000/svg" version="1.1" viewBox="0 0 24 24">
  <defs>
    <style>
      .cls-1 {
        fill: #505051;
      }

      .cls-1, .cls-2, .cls-3, .cls-4 {
        stroke-width: 0px;
      }

      .cls-2 {
        fill: #313132;
      }

      .cls-3 {
        fill: #1f1f20;
      }

      .cls-4 {
        fill: #858586;
      }
    </style>
  </defs>
  <circle class="cls-4" cx="12" cy="12" r="12"/>
  <g>
    <path class="cls-2" d="M8,11c.5,0,1-.5,1-1v-1c0-.6-.5-1-1-1s-1,.4-1,1v1c0,.5.5,1,1,1Z"/>
    <path class="cls-2" d="M16,8c-.5,0-1,.4-1,1v1c0,.5.5,1,1,1s1-.5,1-1v-1c0-.6-.5-1-1-1Z"/>
    <path class="cls-2" d="M12,13.5c.8,0,1.5-.7,1.5-1.5h-3c0,.8.7,1.5,1.5,1.5Z"/>
    <path class="cls-2" d="M12,16.4c-3.1,0-4-1.6-4.1-1.6l-.9.5s1.2,2.2,4.9,2.2,4.9-2.1,4.9-2.2l-.9-.5s-.9,1.6-4.1,1.6h.2Z"/>
  </g>
  <g>
    <path class="cls-1" d="M7,1.1c-1.2.5-2.2,1.2-3.1,2.1v.3c0,1.4,1.1,2.5,2.5,2.5s2.5-1.1,2.5-2.5-.8-2.1-1.8-2.4h0Z"/>
    <path class="cls-1" d="M15.8,3.5c0,1.4,1.1,2.5,2.5,2.5s2.3-.9,2.5-2.1c-1-1.1-2.2-2-3.5-2.6-.9.4-1.5,1.3-1.5,2.3h0Z"/>
    <path class="cls-1" d="M23.8,10.1h-.5c-1.1,0-2,.9-2,2s.9,2,2,2,.3,0,.5,0c.1-.6.2-1.3.2-1.9s0-1.3-.2-1.9v-.2Z"/>
    <circle class="cls-1" cx="6.3" cy="20.5" r="1.5"/>
    <path class="cls-1" d="M18.3,18c-1.4,0-2.5,1.1-2.5,2.5s.6,1.9,1.5,2.3c1.3-.7,2.5-1.5,3.5-2.6-.2-1.2-1.2-2.1-2.5-2.1h0Z"/>
    <path class="cls-1" d="M2.3,9c-1,0-1.8.6-2.2,1.3C0,10.8,0,11.4,0,12S0,12.3,0,12.5c.4.9,1.3,1.5,2.3,1.5s2.5-1.1,2.5-2.5-1.1-2.5-2.5-2.5Z"/>
  </g>
  <path class="cls-3" d="M12,1c6.1,0,11,4.9,11,11s-4.9,11-11,11S1,18.1,1,12,5.9,1,12,1M12,0C5.4,0,0,5.4,0,12s5.4,12,12,12,12-5.4,12-12S18.6,0,12,0h0Z"/>
</svg>